<svg width="39" height="35" viewBox="0 0 39 35" fill="none" xmlns="http://www.w3.org/2000/svg">
<path fill-rule="evenodd" clip-rule="evenodd" d="M38.3337 12.4663C38.3337 12.5306 38.3335 12.5955 38.3335 12.6611V25.0433C38.3337 26.7424 38.3337 28.2063 38.1762 29.3788C38.0073 30.6351 37.6263 31.8394 36.6495 32.8163C35.6726 33.7932 34.4682 34.1741 33.2118 34.3429C32.0396 34.5007 30.5754 34.5005 28.8763 34.5005H9.45745C7.75834 34.5005 6.29434 34.5007 5.12199 34.3429C3.86558 34.1741 2.66124 33.7932 1.68439 32.8163C0.707542 31.8394 0.326604 30.6351 0.157688 29.3788C6.1548e-05 28.2063 0.000157438 26.7424 0.000253271 25.0433V12.6611C0.000253271 12.5955 0.000195817 12.5306 0.000119151 12.4663C-0.000724183 11.5825 -0.00145262 10.8206 0.162058 10.1459C0.669285 8.05331 2.30315 6.41945 4.39576 5.91222C5.07039 5.74871 5.83234 5.74944 6.71618 5.75028C6.78044 5.75036 6.84534 5.75041 6.91089 5.75041C7.57461 5.75041 7.70824 5.74541 7.81617 5.72924C8.2534 5.66371 8.65452 5.44902 8.9516 5.12158C9.02492 5.04075 9.10321 4.93232 9.47137 4.38009L9.90549 3.72891C9.94936 3.66309 9.99279 3.59777 10.0359 3.53297C10.6641 2.58795 11.2181 1.75445 12.0045 1.16096C12.4801 0.801926 13.0087 0.519045 13.5713 0.322414C14.5013 -0.00263317 15.5022 -0.00131048 16.6368 0.000203687C16.7147 0.000318687 16.7932 0.000414349 16.8722 0.000414349H21.4617C21.5406 0.000414349 21.6192 0.000318687 21.697 0.000203687C22.8317 -0.00131048 23.8326 -0.00263317 24.7626 0.322414C25.3251 0.519045 25.8537 0.801926 26.3294 1.16096C27.1156 1.75445 27.6698 2.58797 28.298 3.53297C28.341 3.59777 28.3845 3.66311 28.4284 3.72891L28.8625 4.38009C29.2307 4.93232 29.3089 5.04075 29.3823 5.12158C29.6794 5.44902 30.0805 5.66371 30.5177 5.72924C30.6256 5.74541 30.7592 5.75041 31.423 5.75041C31.4885 5.75041 31.5535 5.75036 31.6177 5.75028C32.5015 5.74944 33.2635 5.74871 33.938 5.91222C36.0306 6.41945 37.6646 8.05331 38.1717 10.1459C38.3352 10.8206 38.3345 11.5825 38.3337 12.4663ZM11.5005 19.1671C11.5005 14.933 14.933 11.5005 19.1672 11.5005C23.4013 11.5005 26.8339 14.933 26.8339 19.1671C26.8339 23.4012 23.4013 26.8338 19.1672 26.8338C14.933 26.8338 11.5005 23.4012 11.5005 19.1671Z" fill="#C6C6C6"/>
</svg>
